<?xml version="1.0" encoding="utf-8"?>
<!-- Generator: Adobe Illustrator 23.1.1, SVG Export Plug-In . SVG Version: 6.00 Build 0)  -->
<svg version="1.1" id="Layer_1" xmlns="http://www.w3.org/2000/svg" xmlns:xlink="http://www.w3.org/1999/xlink" x="0px" y="0px"
	 viewBox="0 0 429 866" style="enable-background:new 0 0 429 866;" xml:space="preserve">
<style type="text/css">
	.st0{fill:#F7F7F7;}
	.st1{fill:#9B9B9B;}
	.st2{enable-background:new    ;}
</style>
<g id="Group_1" transform="translate(2184.5 507)">
	<g transform="matrix(1, 0, 0, 1, -2184.5, -507)">
		<path id="Subtraction_1-2" class="st0" d="M362.9,866H66.1c-13.2,0-26-3.9-37-11.3c-10.6-7.2-18.9-17.3-23.9-29.1
			C1.7,817.5,0,808.7,0,799.9V66.1c0-13.2,3.9-26,11.3-37c7.2-10.6,17.3-18.9,29.1-23.9C48.5,1.7,57.3,0,66.1,0h296.8
			c13.2,0,26,3.9,37,11.3c10.6,7.2,18.9,17.3,23.9,29.1c3.4,8.1,5.2,16.9,5.2,25.7v733.8c0,13.2-3.9,26-11.3,37
			c-7.2,10.6-17.3,18.9-29.1,23.9C380.5,864.2,371.7,866,362.9,866z M64,26c-5.1,0-10.1,1-14.7,3C40.2,32.9,32.9,40.2,29,49.3
			c-2,4.7-3,9.7-3,14.7v736c0,5.1,1,10.1,3,14.7c3.9,9.1,11.2,16.4,20.3,20.3c4.7,2,9.7,3,14.7,3h299c5.1,0,10.1-1,14.7-3
			c9.1-3.9,16.4-11.2,20.3-20.3c2-4.7,3-9.7,3-14.7V64c0-5.1-1-10.1-3-14.7c-3.9-9.1-11.2-16.4-20.3-20.3c-4.7-2-9.7-3-14.7-3H64z
			 M294.3,57h-0.1H294h0.5C294.5,57,294.4,57,294.3,57z M131.6,57h0.2C131.8,57,131.8,57,131.6,57L131.6,57z"/>
	</g>
	<g id="Pollective_mono" transform="translate(-2418.825 -2103.363)">
		<g>
			<path id="Pollective_mono-2_7_" class="st1" d="M443.8,1614.7v-1.3h5v1.3H443.8z M443.8,1612v-1.3h10v1.3H443.8z M443.8,1609.3
				v-1.3h10v1.3H443.8z M443.8,1606.7v-1.3h10v1.3H443.8z"/>
		</g>
	</g>
	<g class="st2">
		<path class="st1" d="M-1889.7,343.7c0.3,0.2,0.6,0.5,0.8,0.9c0.2,0.4,0.3,0.8,0.3,1.4c0,0.5-0.1,1-0.3,1.4
			c-0.2,0.4-0.4,0.7-0.8,0.9s-0.7,0.3-1.1,0.3c-0.4,0-0.7-0.1-1-0.3c-0.3-0.2-0.5-0.4-0.6-0.7v3.3h-1.5v-7.4h1.5v0.9
			c0.1-0.3,0.3-0.5,0.6-0.7s0.6-0.3,1-0.3C-1890.4,343.4-1890.1,343.5-1889.7,343.7z M-1892.1,345.1c-0.2,0.2-0.3,0.5-0.3,0.9
			c0,0.4,0.1,0.7,0.3,0.9s0.5,0.3,0.8,0.3c0.3,0,0.6-0.1,0.8-0.3c0.2-0.2,0.3-0.5,0.3-0.9s-0.1-0.7-0.3-0.9s-0.5-0.3-0.8-0.3
			C-1891.7,344.8-1891.9,344.9-1892.1,345.1z"/>
		<path class="st1" d="M-1884.2,343.7c0.4,0.2,0.7,0.5,0.9,0.9c0.2,0.4,0.3,0.8,0.3,1.4c0,0.5-0.1,1-0.3,1.4
			c-0.2,0.4-0.5,0.7-0.9,0.9s-0.8,0.3-1.3,0.3s-0.9-0.1-1.3-0.3c-0.4-0.2-0.7-0.5-0.9-0.9c-0.2-0.4-0.3-0.8-0.3-1.4
			c0-0.5,0.1-1,0.3-1.4c0.2-0.4,0.5-0.7,0.9-0.9c0.4-0.2,0.8-0.3,1.3-0.3S-1884.6,343.5-1884.2,343.7z M-1886.3,345.1
			c-0.2,0.2-0.3,0.5-0.3,0.9c0,0.4,0.1,0.7,0.3,0.9c0.2,0.2,0.4,0.3,0.7,0.3c0.3,0,0.5-0.1,0.7-0.3c0.2-0.2,0.3-0.5,0.3-0.9
			c0-0.4-0.1-0.7-0.3-0.9c-0.2-0.2-0.4-0.3-0.7-0.3C-1885.8,344.7-1886.1,344.9-1886.3,345.1z"/>
		<path class="st1" d="M-1880.6,341.8v6.7h-1.5v-6.7H-1880.6z"/>
		<path class="st1" d="M-1878,341.8v6.7h-1.5v-6.7H-1878z"/>
		<path class="st1" d="M-1872.2,346.3h-3.5c0,0.4,0.1,0.7,0.3,0.8c0.2,0.2,0.4,0.2,0.7,0.2c0.2,0,0.4-0.1,0.6-0.2s0.2-0.3,0.3-0.4
			h1.6c-0.1,0.4-0.2,0.7-0.4,1c-0.2,0.3-0.5,0.5-0.8,0.7c-0.3,0.2-0.7,0.2-1.1,0.2c-0.5,0-0.9-0.1-1.3-0.3s-0.7-0.5-0.9-0.9
			c-0.2-0.4-0.3-0.8-0.3-1.4c0-0.5,0.1-1,0.3-1.4c0.2-0.4,0.5-0.7,0.9-0.9c0.4-0.2,0.8-0.3,1.3-0.3c0.5,0,0.9,0.1,1.3,0.3
			c0.4,0.2,0.7,0.5,0.9,0.9c0.2,0.4,0.3,0.8,0.3,1.3C-1872.1,346-1872.2,346.1-1872.2,346.3z M-1874,344.9c-0.2-0.2-0.4-0.2-0.7-0.2
			c-0.3,0-0.5,0.1-0.7,0.3c-0.2,0.2-0.3,0.4-0.3,0.7h2C-1873.7,345.3-1873.8,345-1874,344.9z"/>
		<path class="st1" d="M-1867.4,344c0.4,0.4,0.7,0.8,0.8,1.5h-1.6c0-0.2-0.1-0.4-0.3-0.5c-0.2-0.1-0.3-0.2-0.6-0.2
			c-0.3,0-0.5,0.1-0.7,0.3s-0.3,0.5-0.3,0.9s0.1,0.7,0.3,0.9s0.4,0.3,0.7,0.3c0.2,0,0.4-0.1,0.6-0.2c0.1-0.1,0.2-0.3,0.3-0.5h1.6
			c-0.1,0.6-0.4,1.1-0.8,1.5c-0.4,0.4-1,0.5-1.6,0.5c-0.5,0-0.9-0.1-1.3-0.3s-0.7-0.5-0.9-0.9c-0.2-0.4-0.3-0.8-0.3-1.4
			c0-0.5,0.1-1,0.3-1.4c0.2-0.4,0.5-0.7,0.9-0.9c0.4-0.2,0.8-0.3,1.3-0.3C-1868.4,343.4-1867.9,343.6-1867.4,344z"/>
		<path class="st1" d="M-1863,347.2v1.3h-0.7c-0.6,0-1-0.1-1.4-0.4s-0.5-0.8-0.5-1.4v-1.8h-0.7v-1.3h0.7v-1.2h1.5v1.2h1v1.3h-1v1.9
			c0,0.2,0,0.3,0.1,0.4c0.1,0.1,0.2,0.1,0.4,0.1H-1863z"/>
		<path class="st1" d="M-1862,341.5c0.2-0.2,0.4-0.2,0.7-0.2c0.3,0,0.5,0.1,0.7,0.2s0.3,0.3,0.3,0.6c0,0.2-0.1,0.4-0.3,0.6
			c-0.2,0.2-0.4,0.2-0.7,0.2c-0.3,0-0.5-0.1-0.7-0.2c-0.2-0.2-0.3-0.3-0.3-0.6C-1862.3,341.8-1862.2,341.6-1862,341.5z
			 M-1860.6,343.5v5h-1.5v-5H-1860.6z"/>
		<path class="st1" d="M-1857.2,347l1.1-3.5h1.6l-1.8,5h-1.9l-1.8-5h1.6L-1857.2,347z"/>
		<path class="st1" d="M-1849.1,346.3h-3.5c0,0.4,0.1,0.7,0.3,0.8c0.2,0.2,0.4,0.2,0.7,0.2c0.2,0,0.4-0.1,0.6-0.2s0.2-0.3,0.3-0.4
			h1.6c-0.1,0.4-0.2,0.7-0.4,1c-0.2,0.3-0.5,0.5-0.8,0.7c-0.3,0.2-0.7,0.2-1.1,0.2c-0.5,0-0.9-0.1-1.3-0.3s-0.7-0.5-0.9-0.9
			c-0.2-0.4-0.3-0.8-0.3-1.4c0-0.5,0.1-1,0.3-1.4c0.2-0.4,0.5-0.7,0.9-0.9c0.4-0.2,0.8-0.3,1.3-0.3c0.5,0,0.9,0.1,1.3,0.3
			c0.4,0.2,0.7,0.5,0.9,0.9c0.2,0.4,0.3,0.8,0.3,1.3C-1849.1,346-1849.1,346.1-1849.1,346.3z M-1850.9,344.9
			c-0.2-0.2-0.4-0.2-0.7-0.2c-0.3,0-0.5,0.1-0.7,0.3c-0.2,0.2-0.3,0.4-0.3,0.7h2C-1850.6,345.3-1850.7,345-1850.9,344.9z"/>
		<path class="st1" d="M-1846.9,347v1.5h-1.6V347H-1846.9z"/>
		<path class="st1" d="M-1842.2,344c0.4,0.4,0.7,0.8,0.8,1.5h-1.6c0-0.2-0.1-0.4-0.3-0.5c-0.2-0.1-0.3-0.2-0.6-0.2
			c-0.3,0-0.5,0.1-0.7,0.3s-0.3,0.5-0.3,0.9s0.1,0.7,0.3,0.9s0.4,0.3,0.7,0.3c0.2,0,0.4-0.1,0.6-0.2c0.1-0.1,0.2-0.3,0.3-0.5h1.6
			c-0.1,0.6-0.4,1.1-0.8,1.5c-0.4,0.4-1,0.5-1.6,0.5c-0.5,0-0.9-0.1-1.3-0.3s-0.7-0.5-0.9-0.9c-0.2-0.4-0.3-0.8-0.3-1.4
			c0-0.5,0.1-1,0.3-1.4c0.2-0.4,0.5-0.7,0.9-0.9c0.4-0.2,0.8-0.3,1.3-0.3C-1843.2,343.4-1842.7,343.6-1842.2,344z"/>
		<path class="st1" d="M-1836.9,343.7c0.4,0.2,0.7,0.5,0.9,0.9s0.3,0.8,0.3,1.4c0,0.5-0.1,1-0.3,1.4c-0.2,0.4-0.5,0.7-0.9,0.9
			c-0.4,0.2-0.8,0.3-1.3,0.3s-0.9-0.1-1.3-0.3c-0.4-0.2-0.7-0.5-0.9-0.9c-0.2-0.4-0.3-0.8-0.3-1.4c0-0.5,0.1-1,0.3-1.4
			s0.5-0.7,0.9-0.9c0.4-0.2,0.8-0.3,1.3-0.3S-1837.3,343.5-1836.9,343.7z M-1839,345.1c-0.2,0.2-0.3,0.5-0.3,0.9
			c0,0.4,0.1,0.7,0.3,0.9s0.4,0.3,0.7,0.3s0.5-0.1,0.7-0.3s0.3-0.5,0.3-0.9c0-0.4-0.1-0.7-0.3-0.9s-0.4-0.3-0.7-0.3
			S-1838.8,344.9-1839,345.1z"/>
		<path class="st1" d="M-1826.9,344c0.4,0.4,0.5,0.9,0.5,1.6v2.9h-1.5v-2.7c0-0.3-0.1-0.6-0.3-0.7s-0.4-0.3-0.7-0.3
			c-0.3,0-0.5,0.1-0.7,0.3c-0.2,0.2-0.3,0.5-0.3,0.8v2.7h-1.5v-2.7c0-0.3-0.1-0.6-0.3-0.7s-0.4-0.3-0.7-0.3c-0.3,0-0.5,0.1-0.7,0.3
			c-0.2,0.2-0.3,0.5-0.3,0.8v2.7h-1.5v-5h1.5v0.9c0.1-0.3,0.3-0.5,0.6-0.7c0.3-0.2,0.6-0.2,1-0.2c0.4,0,0.7,0.1,1,0.3
			s0.5,0.4,0.7,0.8c0.2-0.3,0.4-0.6,0.7-0.7c0.3-0.2,0.6-0.3,1-0.3C-1827.7,343.4-1827.2,343.6-1826.9,344z"/>
		<path class="st1" d="M-1824,347v1.5h-1.6V347H-1824z"/>
		<path class="st1" d="M-1820.4,347.2v1.3h-0.7c-0.6,0-1-0.1-1.4-0.4s-0.5-0.8-0.5-1.4v-1.8h-0.7v-1.3h0.7v-1.2h1.5v1.2h1v1.3h-1
			v1.9c0,0.2,0,0.3,0.1,0.4c0.1,0.1,0.2,0.1,0.4,0.1H-1820.4z"/>
		<path class="st1" d="M-1817.2,343.7c0.3-0.2,0.6-0.3,1-0.3v1.6h-0.4c-0.4,0-0.7,0.1-1,0.3c-0.2,0.2-0.3,0.5-0.3,0.9v2.3h-1.5v-5
			h1.5v0.9C-1817.8,344.1-1817.5,343.9-1817.2,343.7z"/>
	</g>
</g>
</svg>
